<svg id="visual" viewBox="0 0 900 600" width="900" height="600" xmlns="http://www.w3.org/2000/svg" xmlns:xlink="http://www.w3.org/1999/xlink" version="1.1"><g transform="translate(418.47898503380407 306.36937036725095)"><path d="M117.8 -204.6C135 -194.2 119 -126.8 150.7 -83.3C182.4 -39.7 261.7 -19.8 298.6 21.3C335.6 62.5 330.2 125 285.8 146.5C241.3 168 157.9 148.5 103.8 136.4C49.7 124.4 24.8 119.7 -11.3 139.3C-47.5 158.9 -95 202.9 -108.5 191.5C-122.1 180.2 -101.6 113.5 -134.7 72.4C-167.8 31.3 -254.4 15.6 -259.8 -3.1C-265.1 -21.8 -189.3 -43.7 -145.9 -66.9C-102.5 -90.1 -91.5 -114.8 -72.6 -124.2C-53.7 -133.6 -26.8 -127.8 11.7 -148.2C50.3 -168.5 100.7 -215 117.8 -204.6" fill="#86A964"></path></g></svg>