<svg id="visual" viewBox="0 0 900 600" width="900" height="600" xmlns="http://www.w3.org/2000/svg" xmlns:xlink="http://www.w3.org/1999/xlink" version="1.1"><g transform="translate(465.0194579884425 279.11302701924785)"><path d="M90.1 -150C115.5 -141.3 133.9 -114.7 175.8 -86.7C217.6 -58.7 282.8 -29.3 304.6 12.6C326.4 54.5 304.8 109 270.5 150C236.1 191 189.1 218.5 141.9 214.7C94.7 210.8 47.3 175.7 -4.3 183.2C-56 190.8 -112 240.9 -143.8 235.8C-175.5 230.7 -183 170.3 -217.5 121.8C-252 73.3 -313.5 36.7 -334.7 -12.2C-355.9 -61.2 -336.9 -122.3 -294.3 -156.8C-251.7 -191.3 -185.6 -199.2 -132.6 -191.9C-79.7 -184.7 -39.8 -162.3 -3.8 -155.8C32.3 -149.3 64.7 -158.7 90.1 -150" fill="#2F5282"></path></g></svg>