<svg id="visual" viewBox="0 0 900 600" width="900" height="600" xmlns="http://www.w3.org/2000/svg" xmlns:xlink="http://www.w3.org/1999/xlink" version="1.1"><path d="M0 138L15 148.8C30 159.7 60 181.3 90 172.3C120 163.3 150 123.7 180 102.3C210 81 240 78 270 85.3C300 92.7 330 110.3 360 112.2C390 114 420 100 450 104.5C480 109 510 132 540 143.5C570 155 600 155 630 155.8C660 156.7 690 158.3 720 165.5C750 172.7 780 185.3 810 175.8C840 166.3 870 134.7 885 118.8L900 103L900 0L885 0C870 0 840 0 810 0C780 0 750 0 720 0C690 0 660 0 630 0C600 0 570 0 540 0C510 0 480 0 450 0C420 0 390 0 360 0C330 0 300 0 270 0C240 0 210 0 180 0C150 0 120 0 90 0C60 0 30 0 15 0L0 0Z" fill="#2D507F" stroke-linecap="round" stroke-linejoin="miter"></path></svg>